<mxfile host="app.diagrams.net" modified="2022-07-26T21:44:48.193Z" agent="5.0 (Macintosh; Intel Mac OS X 10_15_7) AppleWebKit/605.1.15 (KHTML, like Gecko) Version/15.5 Safari/605.1.15" etag="ixFl-K0IgeORserVOt8U" version="20.2.1" type="github">
  <diagram id="tNOIqHjqf8-ZSMt3mI5K" name="Page-1">
    <mxGraphModel dx="914" dy="1649" grid="1" gridSize="10" guides="1" tooltips="1" connect="1" arrows="1" fold="1" page="1" pageScale="1" pageWidth="850" pageHeight="1100" math="0" shadow="0">
      <root>
        <mxCell id="0" />
        <mxCell id="1" parent="0" />
        <mxCell id="ZSo1ROVyvgX9X2hF_C0V-5" value="" style="endArrow=block;dashed=1;endFill=0;endSize=12;html=1;rounded=0;entryX=0.5;entryY=1;entryDx=0;entryDy=0;exitX=0.5;exitY=0;exitDx=0;exitDy=0;" parent="1" source="ZSo1ROVyvgX9X2hF_C0V-6" edge="1">
          <mxGeometry width="160" relative="1" as="geometry">
            <mxPoint x="160" y="120" as="sourcePoint" />
            <mxPoint x="160" y="60" as="targetPoint" />
          </mxGeometry>
        </mxCell>
        <mxCell id="ZSo1ROVyvgX9X2hF_C0V-6" value="OrderServiceImpl" style="html=1;" parent="1" vertex="1">
          <mxGeometry y="120" width="110" height="90" as="geometry" />
        </mxCell>
        <mxCell id="ZSo1ROVyvgX9X2hF_C0V-7" value="" style="endArrow=none;dashed=1;html=1;dashPattern=1 3;strokeWidth=2;rounded=0;" parent="1" edge="1">
          <mxGeometry width="50" height="50" relative="1" as="geometry">
            <mxPoint x="260" y="170" as="sourcePoint" />
            <mxPoint x="200" y="170" as="targetPoint" />
          </mxGeometry>
        </mxCell>
        <mxCell id="ZSo1ROVyvgX9X2hF_C0V-8" value="Others.." style="html=1;" parent="1" vertex="1">
          <mxGeometry x="135" y="120" width="50" height="90" as="geometry" />
        </mxCell>
        <mxCell id="ZSo1ROVyvgX9X2hF_C0V-9" value="name" style="endArrow=block;endFill=1;html=1;edgeStyle=orthogonalEdgeStyle;align=left;verticalAlign=top;rounded=0;exitX=1.014;exitY=0.427;exitDx=0;exitDy=0;exitPerimeter=0;" parent="1" edge="1">
          <mxGeometry x="-1" relative="1" as="geometry">
            <mxPoint x="273.0799999999999" y="-3.0299999999999727" as="sourcePoint" />
            <mxPoint x="530" y="-50" as="targetPoint" />
            <Array as="points">
              <mxPoint x="490" y="-3" />
              <mxPoint x="490" y="-50" />
            </Array>
          </mxGeometry>
        </mxCell>
        <mxCell id="ZSo1ROVyvgX9X2hF_C0V-10" value="1" style="edgeLabel;resizable=0;html=1;align=left;verticalAlign=bottom;" parent="ZSo1ROVyvgX9X2hF_C0V-9" connectable="0" vertex="1">
          <mxGeometry x="-1" relative="1" as="geometry" />
        </mxCell>
        <mxCell id="ZSo1ROVyvgX9X2hF_C0V-11" value="name" style="endArrow=block;endFill=1;html=1;edgeStyle=orthogonalEdgeStyle;align=left;verticalAlign=top;rounded=0;exitX=1.009;exitY=0.445;exitDx=0;exitDy=0;exitPerimeter=0;entryX=0;entryY=0.5;entryDx=0;entryDy=0;" parent="1" edge="1">
          <mxGeometry x="-1" relative="1" as="geometry">
            <mxPoint x="271.98" y="-1.0499999999999545" as="sourcePoint" />
            <mxPoint x="530" y="185" as="targetPoint" />
            <Array as="points">
              <mxPoint x="360" y="-1" />
              <mxPoint x="360" y="185" />
            </Array>
          </mxGeometry>
        </mxCell>
        <mxCell id="ZSo1ROVyvgX9X2hF_C0V-12" value="1" style="edgeLabel;resizable=0;html=1;align=left;verticalAlign=bottom;" parent="ZSo1ROVyvgX9X2hF_C0V-11" connectable="0" vertex="1">
          <mxGeometry x="-1" relative="1" as="geometry" />
        </mxCell>
        <mxCell id="ZSo1ROVyvgX9X2hF_C0V-15" value="«interface»&lt;br&gt;&lt;b&gt;MEMBER SERVICE&lt;/b&gt;" style="html=1;" parent="1" vertex="1">
          <mxGeometry x="530" y="-90" width="250" height="80" as="geometry" />
        </mxCell>
        <mxCell id="ZSo1ROVyvgX9X2hF_C0V-16" value="«interface»&lt;br&gt;&lt;b&gt;ORDER SERVICE&lt;/b&gt;" style="html=1;" parent="1" vertex="1">
          <mxGeometry x="90" y="-30" width="180" height="90" as="geometry" />
        </mxCell>
        <mxCell id="ZSo1ROVyvgX9X2hF_C0V-17" value="«interface»&lt;br&gt;&lt;b&gt;DISCOUNT POLICY&lt;/b&gt;" style="html=1;" parent="1" vertex="1">
          <mxGeometry x="530" y="150" width="240" height="80" as="geometry" />
        </mxCell>
        <mxCell id="ZSo1ROVyvgX9X2hF_C0V-18" value="" style="endArrow=block;dashed=1;endFill=0;endSize=12;html=1;rounded=0;entryX=0.28;entryY=1;entryDx=0;entryDy=0;entryPerimeter=0;" parent="1" target="ZSo1ROVyvgX9X2hF_C0V-15" edge="1">
          <mxGeometry width="160" relative="1" as="geometry">
            <mxPoint x="560" y="40" as="sourcePoint" />
            <mxPoint x="450" y="120" as="targetPoint" />
          </mxGeometry>
        </mxCell>
        <mxCell id="ZSo1ROVyvgX9X2hF_C0V-20" value="MemberServiceImpl" style="html=1;" parent="1" vertex="1">
          <mxGeometry x="500" y="40" width="130" height="60" as="geometry" />
        </mxCell>
        <mxCell id="ZSo1ROVyvgX9X2hF_C0V-21" value="name" style="endArrow=block;endFill=1;html=1;edgeStyle=orthogonalEdgeStyle;align=left;verticalAlign=top;rounded=0;exitX=1;exitY=0.5;exitDx=0;exitDy=0;" parent="1" source="ZSo1ROVyvgX9X2hF_C0V-20" edge="1">
          <mxGeometry x="-1" relative="1" as="geometry">
            <mxPoint x="520" y="140" as="sourcePoint" />
            <mxPoint x="950" y="-50" as="targetPoint" />
            <Array as="points">
              <mxPoint x="870" y="70" />
              <mxPoint x="870" y="-50" />
              <mxPoint x="940" y="-50" />
            </Array>
          </mxGeometry>
        </mxCell>
        <mxCell id="ZSo1ROVyvgX9X2hF_C0V-22" value="1" style="edgeLabel;resizable=0;html=1;align=left;verticalAlign=bottom;" parent="ZSo1ROVyvgX9X2hF_C0V-21" connectable="0" vertex="1">
          <mxGeometry x="-1" relative="1" as="geometry" />
        </mxCell>
        <mxCell id="ZSo1ROVyvgX9X2hF_C0V-24" value="«interface»&lt;br&gt;&lt;b&gt;MEMBER REPOSITORY&lt;/b&gt;" style="html=1;" parent="1" vertex="1">
          <mxGeometry x="950" y="-90" width="250" height="80" as="geometry" />
        </mxCell>
        <mxCell id="ZSo1ROVyvgX9X2hF_C0V-25" value="MemoryMemberRepository" style="html=1;" parent="1" vertex="1">
          <mxGeometry x="900" y="40" width="160" height="50" as="geometry" />
        </mxCell>
        <mxCell id="ZSo1ROVyvgX9X2hF_C0V-26" value="" style="endArrow=block;dashed=1;endFill=0;endSize=12;html=1;rounded=0;entryX=0.396;entryY=0.988;entryDx=0;entryDy=0;entryPerimeter=0;" parent="1" source="ZSo1ROVyvgX9X2hF_C0V-25" target="ZSo1ROVyvgX9X2hF_C0V-24" edge="1">
          <mxGeometry width="160" relative="1" as="geometry">
            <mxPoint x="1050" y="20" as="sourcePoint" />
            <mxPoint x="920" y="140" as="targetPoint" />
          </mxGeometry>
        </mxCell>
        <mxCell id="ZSo1ROVyvgX9X2hF_C0V-27" value="" style="endArrow=block;dashed=1;endFill=0;endSize=12;html=1;rounded=0;entryX=0.656;entryY=0.988;entryDx=0;entryDy=0;entryPerimeter=0;" parent="1" target="ZSo1ROVyvgX9X2hF_C0V-24" edge="1">
          <mxGeometry width="160" relative="1" as="geometry">
            <mxPoint x="1114" y="40" as="sourcePoint" />
            <mxPoint x="920" y="140" as="targetPoint" />
          </mxGeometry>
        </mxCell>
        <mxCell id="ZSo1ROVyvgX9X2hF_C0V-28" value="DbMemberRepository" style="html=1;" parent="1" vertex="1">
          <mxGeometry x="1080" y="40" width="160" height="50" as="geometry" />
        </mxCell>
        <mxCell id="ZSo1ROVyvgX9X2hF_C0V-29" value="" style="endArrow=block;dashed=1;endFill=0;endSize=12;html=1;rounded=0;entryX=0.225;entryY=1.025;entryDx=0;entryDy=0;entryPerimeter=0;" parent="1" target="ZSo1ROVyvgX9X2hF_C0V-17" edge="1">
          <mxGeometry width="160" relative="1" as="geometry">
            <mxPoint x="584" y="280" as="sourcePoint" />
            <mxPoint x="520" y="220" as="targetPoint" />
          </mxGeometry>
        </mxCell>
        <mxCell id="ZSo1ROVyvgX9X2hF_C0V-30" value="FixDiscountPolicy" style="html=1;" parent="1" vertex="1">
          <mxGeometry x="530" y="280" width="100" height="80" as="geometry" />
        </mxCell>
        <mxCell id="ZSo1ROVyvgX9X2hF_C0V-31" value="" style="endArrow=block;dashed=1;endFill=0;endSize=12;html=1;rounded=0;entryX=0.779;entryY=1.025;entryDx=0;entryDy=0;entryPerimeter=0;" parent="1" target="ZSo1ROVyvgX9X2hF_C0V-17" edge="1">
          <mxGeometry width="160" relative="1" as="geometry">
            <mxPoint x="717" y="280" as="sourcePoint" />
            <mxPoint x="520" y="220" as="targetPoint" />
          </mxGeometry>
        </mxCell>
        <mxCell id="ZSo1ROVyvgX9X2hF_C0V-32" value="RateDiscountPolicy" style="html=1;" parent="1" vertex="1">
          <mxGeometry x="660" y="280" width="110" height="80" as="geometry" />
        </mxCell>
        <mxCell id="ZSo1ROVyvgX9X2hF_C0V-33" value="Others...." style="html=1;" parent="1" vertex="1">
          <mxGeometry x="790" y="280" width="110" height="80" as="geometry" />
        </mxCell>
        <mxCell id="CU26PY0C_H8_sZSRkxNd-2" value="AppConfig" style="html=1;" vertex="1" parent="1">
          <mxGeometry x="10" y="-230" width="110" height="50" as="geometry" />
        </mxCell>
        <mxCell id="CU26PY0C_H8_sZSRkxNd-3" value="CONFIGURATION" style="text;html=1;strokeColor=none;fillColor=none;align=center;verticalAlign=middle;whiteSpace=wrap;rounded=0;" vertex="1" parent="1">
          <mxGeometry x="5" y="-270" width="130" height="30" as="geometry" />
        </mxCell>
        <mxCell id="CU26PY0C_H8_sZSRkxNd-4" value="" style="endArrow=none;html=1;rounded=0;" edge="1" parent="1">
          <mxGeometry width="50" height="50" relative="1" as="geometry">
            <mxPoint x="1292" y="-120" as="sourcePoint" />
            <mxPoint y="-120" as="targetPoint" />
          </mxGeometry>
        </mxCell>
      </root>
    </mxGraphModel>
  </diagram>
</mxfile>
